<?xml version="1.0" encoding="UTF-8" standalone="no"?><svg width="64" height="64" viewBox="0 0 64 64" fill="none" xmlns="http://www.w3.org/2000/svg">
<path d="M19.6697 49V14.0909H33.0334C35.5561 14.0909 37.6527 14.4886 39.3232 15.2841C41.005 16.0682 42.2607 17.142 43.0902 18.5057C43.9311 19.8693 44.3516 21.4148 44.3516 23.142C44.3516 24.5625 44.0788 25.7784 43.5334 26.7898C42.9879 27.7898 42.255 28.6023 41.3345 29.2273C40.4141 29.8523 39.3857 30.3011 38.2493 30.5739V30.9148C39.4879 30.983 40.6754 31.3636 41.8118 32.0568C42.9595 32.7386 43.897 33.7045 44.6243 34.9545C45.3516 36.2045 45.7152 37.7159 45.7152 39.4886C45.7152 41.2955 45.2777 42.9205 44.4027 44.3636C43.5277 45.7955 42.2095 46.9261 40.4482 47.7557C38.6868 48.5852 36.4709 49 33.8004 49H19.6697ZM25.9936 43.7159H32.7947C35.0902 43.7159 36.7436 43.2784 37.755 42.4034C38.7777 41.517 39.2891 40.3807 39.2891 38.9943C39.2891 37.9602 39.0334 37.0284 38.522 36.1989C38.0107 35.358 37.2834 34.6989 36.3402 34.2216C35.397 33.733 34.272 33.4886 32.9652 33.4886H25.9936V43.7159ZM25.9936 28.9375H32.2493C33.3402 28.9375 34.3232 28.7386 35.1982 28.3409C36.0732 27.9318 36.7607 27.358 37.2607 26.6193C37.772 25.8693 38.0277 24.983 38.0277 23.9602C38.0277 22.608 37.5504 21.4943 36.5959 20.6193C35.6527 19.7443 34.2493 19.3068 32.3857 19.3068H25.9936V28.9375Z" fill="#5720B7"/>
<rect x="2.5" y="2.5" width="59" height="59" stroke="#5720B7" stroke-width="5"/>
</svg>
