<?xml version="1.0" encoding="UTF-8" standalone="no"?><svg width="311" height="88" viewBox="0 0 311 88" fill="none" xmlns="http://www.w3.org/2000/svg">
<path d="M23.826 61V26.0909H37.1896C39.7124 26.0909 41.8089 26.4886 43.4794 27.2841C45.1612 28.0682 46.4169 29.142 47.2465 30.5057C48.0874 31.8693 48.5078 33.4148 48.5078 35.142C48.5078 36.5625 48.2351 37.7784 47.6896 38.7898C47.1442 39.7898 46.4112 40.6023 45.4908 41.2273C44.5703 41.8523 43.5419 42.3011 42.4055 42.5739V42.9148C43.6442 42.983 44.8317 43.3636 45.968 44.0568C47.1158 44.7386 48.0533 45.7045 48.7805 46.9545C49.5078 48.2045 49.8715 49.7159 49.8715 51.4886C49.8715 53.2955 49.434 54.9205 48.559 56.3636C47.684 57.7955 46.3658 58.9261 44.6044 59.7557C42.843 60.5852 40.6271 61 37.9567 61H23.826ZM30.1499 55.7159H36.951C39.2464 55.7159 40.8999 55.2784 41.9112 54.4034C42.9339 53.517 43.4453 52.3807 43.4453 50.9943C43.4453 49.9602 43.1896 49.0284 42.6783 48.1989C42.1669 47.358 41.4396 46.6989 40.4964 46.2216C39.5533 45.733 38.4283 45.4886 37.1214 45.4886H30.1499V55.7159ZM30.1499 40.9375H36.4055C37.4964 40.9375 38.4794 40.7386 39.3544 40.3409C40.2294 39.9318 40.9169 39.358 41.4169 38.6193C41.9283 37.8693 42.1839 36.983 42.1839 35.9602C42.1839 34.608 41.7067 33.4943 40.7521 32.6193C39.8089 31.7443 38.4055 31.3068 36.5419 31.3068H30.1499V40.9375ZM55.3729 61V26.0909H78.0774V31.392H61.6967V40.8693H76.9013V46.1705H61.6967V55.6989H78.2138V61H55.3729ZM84.5291 61V26.0909H97.62C100.302 26.0909 102.552 26.5568 104.37 27.4886C106.2 28.4205 107.58 29.7273 108.512 31.4091C109.455 33.0795 109.927 35.0284 109.927 37.2557C109.927 39.4943 109.45 41.4375 108.495 43.0852C107.552 44.7216 106.16 45.9886 104.319 46.8864C102.478 47.7727 100.217 48.2159 97.5348 48.2159H88.2109V42.9659H96.6825C98.2507 42.9659 99.5348 42.75 100.535 42.3182C101.535 41.875 102.273 41.233 102.751 40.392C103.239 39.5398 103.484 38.4943 103.484 37.2557C103.484 36.017 103.239 34.9602 102.751 34.0852C102.262 33.1989 101.518 32.5284 100.518 32.0739C99.5178 31.608 98.228 31.375 96.6484 31.375H90.853V61H84.5291ZM102.563 45.1818L111.205 61H104.148L95.6598 45.1818H102.563ZM131.038 61.4773C127.833 61.4773 125.015 60.7557 122.583 59.3125C120.163 57.858 118.271 55.7955 116.907 53.125C115.543 50.4432 114.862 47.2614 114.862 43.5795C114.862 40.7614 115.271 38.2443 116.089 36.0284C116.907 33.8125 118.049 31.9318 119.515 30.3864C120.981 28.8295 122.691 27.6477 124.646 26.8409C126.6 26.0227 128.719 25.6136 131.004 25.6136C132.935 25.6136 134.742 25.8977 136.424 26.4659C138.117 27.0227 139.629 27.8182 140.958 28.8523C142.288 29.8864 143.379 31.1136 144.231 32.5341C145.094 33.9545 145.657 35.5227 145.918 37.2386H139.475C139.214 36.3182 138.827 35.4886 138.316 34.75C137.805 34.0114 137.185 33.3864 136.458 32.875C135.731 32.3523 134.913 31.9602 134.004 31.6989C133.106 31.4261 132.134 31.2898 131.089 31.2898C129.202 31.2898 127.515 31.7614 126.026 32.7045C124.538 33.6477 123.362 35.0341 122.498 36.8636C121.646 38.6818 121.219 40.8977 121.219 43.5114C121.219 46.1477 121.634 48.3807 122.464 50.2102C123.305 52.0398 124.464 53.4318 125.941 54.3864C127.418 55.3295 129.129 55.8011 131.072 55.8011C132.89 55.8011 134.464 55.4432 135.793 54.7273C137.123 54.0114 138.146 53.017 138.862 51.7443C139.589 50.4716 139.952 49.0057 139.952 47.3466L141.077 47.6705H131.702V42.7273H146.174V61H141.64L141.18 56.9091H140.992C139.765 58.375 138.35 59.5057 136.748 60.3011C135.146 61.0852 133.242 61.4773 131.038 61.4773ZM152.31 61V26.0909H158.634V40.8693H174.81V26.0909H181.151V61H174.81V46.1705H158.634V61H152.31ZM192.512 61H185.762L198.052 26.0909H205.859L218.165 61H211.415L202.092 33.25H201.819L192.512 61ZM192.734 47.3125H211.143V52.392H192.734V47.3125ZM222.763 61V26.0909H229.087V40.8693H245.263V26.0909H251.604V61H245.263V46.1705H229.087V61H222.763ZM287.17 26.0909V61H281.545L265.096 37.2216H264.806V61H258.482V26.0909H264.141L280.573 49.8864H280.88V26.0909H287.17Z" fill="#5720B7"/>
<rect x="2.5" y="2.5" width="306" height="83" stroke="#5720B7" stroke-width="5"/>
</svg>
